<svg xmlns="http://www.w3.org/2000/svg" width="600" height="600">
  <!-- Gray background -->
  <!-- <rect width="600" height="600" fill="#fff" /> -->
  <g transform="translate(50,50)">
      <!-- Define a clip path -->
    <defs>
      <clipPath id="lefhalf">
        <rect x="0" y="0" width="250" height="500"/>
      </clipPath>
    </defs>
    <!-- Full circle clipped to show half -->
    <circle cx="250" cy="250" r="250" fill="black" clip-path="url(#lefhalf)" />


    <defs>
      <filter id="f1" x="-10%" y="-10%" xmlns="http://www.w3.org/2000/svg">
        <feGaussianBlur in="SourceGraphic" stdDeviation="10"/>
      </filter>
    </defs>
    <circle cx="252" cy="250" r="250" fill="black"  filter="url(#f1)"/>




        <!-- Define a clip path -->
    <defs>
      <clipPath id="righthalf">
        <rect x="250" y="0" width="250" height="500"/>
      </clipPath>      
    </defs>
    <!-- Full circle clipped to show half -->
    <circle cx="250" cy="250" r="250" fill="white" clip-path="url(#righthalf)" filter="url(#dropshadow)"/>


   
   
    <circle cx="250" cy="125" r="125" fill="black" />
    <circle cx="250" cy="375" r="125" fill="white" />
    <circle cx="250" cy="125" r="35" fill="white" />    
   




    <rect x="235" y="109" width="30" height="3" z="10" fill="black" />
    <rect x="237" y="124" width="26" height="3" z="10" fill="black" />
    <rect x="235" y="139" width="30" height="3" z="10" fill="black" />




    <circle cx="250" cy="375" r="35" fill="black" />
    <rect x="235" y="360" width="30" height="30" fill="white" />    
   
    <rect x="230" y="366" width="40" height="2" fill="white" />
    <rect x="230" y="370" width="40" height="2" fill="white" />
    <rect x="230" y="374" width="40" height="2" fill="white" />
    <rect x="230" y="378" width="40" height="2" fill="white" />
    <rect x="230" y="382" width="40" height="2" fill="white" />




    <rect x="249" y="355" width="2" height="40" fill="white" />
    <rect x="253" y="355" width="2" height="40" fill="white" />
    <rect x="257" y="355" width="2" height="40" fill="white" />
    <rect x="245" y="355" width="2" height="40" fill="white" />
    <rect x="241" y="355" width="2" height="40" fill="white" />
    <rect x="241" y="366" width="18" height="18" fill="none" stroke-width="2" stroke="black"/>


     <!-- Define the S-shaped path for the text -->
    <defs>
      <path id="s-curve" d="
        M290,20
        A240,240 0 0,1 290,480        
      " fill="none" stroke="none"/>
    </defs>


    <!-- Text along the S-shaped path -->
    <text font-size="28" fill="black">
      <textPath href="#s-curve" startOffset="30%">
        ETH is money
      </textPath>
    </text>




    <!-- Define a reversed S-shaped path for the second text -->
    <defs>
      <path id="s-curve-reverse" d="
        M50,350
        A240,240 0 0,1 300,33
      " fill="none" stroke="none"/>
    </defs>




    <!-- Second text along the reversed S-shaped path -->
    <text font-size="24" fill="white">
      <textPath href="#s-curve-reverse" startOffset="10%">
        Ethereum is the world computer
      </textPath>
    </text>
  </g>
</svg>